<svg version="1.2" xmlns="http://www.w3.org/2000/svg" viewBox="0 0 210 229" width="210" height="229"><defs><clipPath clipPathUnits="userSpaceOnUse" id="cp1"><path d="m26.32 12.7h79.68v139.5h-79.68z"/></clipPath><clipPath clipPathUnits="userSpaceOnUse" id="cp2"><path d="m105 12.7h79.57v139.5h-79.57z"/></clipPath></defs><style>.a{fill:#231f20}.b{fill:#fbc108}.c{fill:#fddd10}</style><g clip-path="url(#cp1)"><path class="a" d="m76.6 142.2c-3.3 0-6.4-1.7-8-4.6l-29.3-50.3c-1.6-2.9-1.6-6.4 0-9.3l28.9-50.5c1.6-2.9 4.7-4.6 8-4.6l29.1-0.1-0.1-10-33.9 0.1c-3.8 0-7.4 2.1-9.3 5.5l-33.7 58.9c-1.9 3.3-1.9 7.5 0 10.8l34.1 58.7c2 3.3 5.5 5.4 9.4 5.4l33.9-0.2v-9.9z"/></g><g clip-path="url(#cp2)"><path class="b" d="m182.6 76.8l-34.1-58.7c-2-3.4-5.5-5.4-9.4-5.4l-33.9 0.1 0.1 10 29-0.2c3.3 0 6.4 1.8 8 4.7l29.3 50.3c1.6 2.8 1.6 6.4 0 9.2l-28.9 50.5c-1.6 2.9-4.7 4.7-8 4.7l-29 0.1v9.9l33.9-0.1c3.8 0 7.4-2.1 9.3-5.4l33.7-58.9c1.9-3.4 1.9-7.5 0-10.8z"/></g><path class="c" d="m101.1 113.3c0.5 1.1 1 2.1 1.5 3 0 0 3.9-2.2 8.1-0.1q0.8-1.5 1.4-3.1c-5.7-3.3-11 0.2-11 0.2z"/><path class="c" d="m98.8 106.3c0.3 1.1 0.6 2.3 1 3.5 1.9-1.1 7.1-3.5 13.4-0.3 0.4-1.3 0.7-2.6 1-3.7-7.4-3.7-13.5-0.7-15.4 0.5z"/><path class="b" d="m97 73.4c-6.4-4.2-25.2-16.1-35.4-17.1-3.6-0.3-6.3 3.2-5 6.6 3 8.2 12.5 25.1 37.3 18.6-8.7 2.3-21.1 6-25.5 14.8-4.7 9.3 1.1 9.6 7.3 7.9 5.1-1.4 9.7-4.1 13.6-7.7 3.6-3.4 7.8-8.5 9.8-15.1q0.1-0.5 0.3-0.9 0-0.1 0-0.2c0.9-2.6-0.1-5.4-2.4-6.9z"/><path class="a" d="m97 73.4l0.2-0.4c-3.2-2.1-9.5-6.1-16.3-9.7-3.3-1.9-6.9-3.6-10.2-4.9-3.3-1.3-6.4-2.2-9.1-2.5q-0.2 0-0.5 0c-1.5 0-2.8 0.6-3.8 1.6-0.9 1-1.5 2.3-1.5 3.7q0 0.9 0.4 1.9c1.3 3.5 3.7 8.5 8 12.7 4.3 4.2 10.5 7.6 19.2 7.6 3.2 0 6.7-0.5 10.6-1.5q0.2 0 0.3-0.2 0.1-0.2 0-0.3 0-0.2-0.2-0.3-0.1-0.1-0.3 0c-4.4 1.1-9.7 2.6-14.5 5-2.4 1.1-4.6 2.5-6.6 4.2-1.9 1.6-3.6 3.6-4.7 5.8-1.2 2.4-1.8 4.3-1.8 5.7q0 1 0.4 1.7c0.3 0.7 0.9 1.2 1.6 1.5 0.8 0.3 1.6 0.5 2.5 0.5 1.6 0 3.3-0.4 5.1-0.9 5.2-1.4 9.9-4.1 13.8-7.8 3.6-3.4 7.9-8.6 9.9-15.3q0.1-0.4 0.3-0.9 0-0.1 0-0.1 0.4-1 0.4-2.1c0-2.1-1.1-4.2-3-5.4l-0.4 0.7c1.6 1.1 2.5 2.9 2.5 4.7q0 0.9-0.3 1.8 0 0 0 0.1-0.2 0.5-0.4 1c-1.8 6.5-6 11.5-9.6 14.9-3.8 3.6-8.4 6.2-13.4 7.6-1.7 0.5-3.5 0.8-4.9 0.8-1.1 0-2-0.2-2.6-0.7q-0.5-0.3-0.7-0.8-0.3-0.5-0.3-1.3c0-1.2 0.5-3 1.7-5.3 1-2.1 2.6-4 4.5-5.6 5.6-4.7 14.2-7.3 20.7-9q0.2 0 0.3-0.2 0.1-0.2 0-0.3 0-0.2-0.2-0.3-0.1-0.1-0.3 0c-3.8 1-7.3 1.4-10.4 1.4-8.5 0-14.4-3.2-18.6-7.3-4.1-4.1-6.5-9-7.8-12.4q-0.3-0.8-0.3-1.6c0-1.2 0.5-2.3 1.3-3.1 0.8-0.8 1.9-1.3 3.1-1.3q0.2 0 0.5 0c2.5 0.2 5.5 1.1 8.8 2.4 9.8 3.9 21.6 11.4 26.4 14.5z"/><path class="a" d="m112 81.7q-0.1-0.4-0.2-0.8l-0.1-0.2c-1-3 0-6.3 2.5-8.2-2-2.1-4.9-3.3-8-3.3-3.2 0-6 1.3-8.1 3.4 2.5 1.9 3.6 5.2 2.6 8.1l-0.1 0.2q-0.1 0.4-0.3 0.9-0.2 0.7-0.4 1.3c1.9-1.1 4.1-1.7 6.2-1.7h0.1c2.1 0 4.3 0.5 6.3 1.6q-0.3-0.6-0.5-1.3z"/><path class="b" d="m115.3 73.3c6.4-4.2 25-16.2 35.3-17.3 3.6-0.3 6.3 3.2 5.1 6.6-3 8.2-12.3 25.1-37.2 18.8 8.7 2.2 21.1 5.9 25.6 14.7 4.7 9.2-1.1 9.6-7.3 7.9-5.1-1.4-9.7-4-13.6-7.6-3.7-3.4-7.9-8.5-9.9-15q-0.1-0.5-0.3-1 0-0.1-0.1-0.1c-0.9-2.6 0.1-5.5 2.4-7z"/><path class="a" d="m115.3 73.3l0.3 0.4c3.1-2.1 9.4-6.2 16.1-9.8 3.4-1.9 6.8-3.6 10.1-4.9 3.3-1.4 6.3-2.3 8.8-2.5q0.3-0.1 0.5-0.1c1.2 0 2.3 0.6 3.1 1.4 0.8 0.8 1.3 1.9 1.3 3.1q0 0.7-0.2 1.5c-1.3 3.5-3.7 8.5-7.9 12.6-2.1 2-4.6 3.9-7.7 5.2-3.1 1.3-6.7 2.1-11 2.1-3 0-6.4-0.4-10.1-1.3-0.3-0.1-0.5 0.1-0.6 0.3 0 0.2 0.1 0.5 0.4 0.5 4.3 1.1 9.6 2.6 14.3 4.9 2.3 1.1 4.6 2.4 6.5 4 1.8 1.6 3.4 3.4 4.5 5.6 1.2 2.3 1.7 4 1.7 5.2q0 0.9-0.3 1.4c-0.2 0.5-0.6 0.8-1.2 1.1q-0.9 0.3-2.2 0.3c-1.4 0-3.1-0.3-4.8-0.7-5-1.4-9.6-4-13.4-7.5-3.6-3.4-7.8-8.4-9.8-14.9q-0.1-0.5-0.3-0.9 0-0.1-0.1-0.2-0.3-0.9-0.3-1.8c0-1.8 1-3.6 2.6-4.6l-0.3-0.4-0.2-0.3c-1.9 1.2-2.9 3.2-2.9 5.3q0 1.1 0.3 2.1 0 0.1 0.1 0.2 0.1 0.4 0.3 0.9c2 6.7 6.3 11.8 10 15.2 3.9 3.7 8.6 6.3 13.8 7.7 1.8 0.5 3.5 0.8 5 0.8 1.3 0 2.4-0.2 3.2-0.8q0.7-0.4 1-1.2 0.4-0.7 0.4-1.7c0-1.4-0.6-3.2-1.8-5.6-1.2-2.3-2.8-4.2-4.8-5.9-5.9-4.9-14.6-7.4-21.1-9-0.3-0.1-0.5 0.1-0.6 0.3 0 0.2 0.1 0.5 0.4 0.5 3.8 1 7.2 1.4 10.3 1.4 8.8 0 15-3.4 19.3-7.6 4.4-4.3 6.8-9.4 8.1-12.9q0.3-0.9 0.3-1.8c0-1.4-0.6-2.8-1.5-3.7-1-1-2.3-1.6-3.8-1.6q-0.3 0-0.6 0c-2.6 0.3-5.7 1.2-9 2.6-9.9 4-21.6 11.6-26.4 14.8z"/><path class="c" d="m114.9 97.9c0 0-4.1-2.3-8.2-2.2q-0.2 0-0.4 0-0.1 0-0.2 0-0.3 0-0.6 0-0.2 0.1-0.3 0.1-0.1 0-0.3 0-0.1 0-0.1 0-0.1 0-0.2 0h-0.1q-0.4 0.1-0.8 0.2h-0.1q0 0-0.1 0-0.1 0-0.3 0.1h-0.1q-0.1 0-0.2 0-0.1 0.1-0.1 0.1-0.1 0-0.2 0h-0.1l-0.1 0.1q-0.1 0-0.1 0h-0.1q-0.1 0-0.3 0.1 0 0-0.1 0-0.1 0-0.2 0.1-0.2 0-0.4 0.1-0.1 0-0.2 0-0.1 0-0.1 0.1h-0.1q-0.1 0-0.3 0.1h-0.1q-0.1 0.1-0.3 0.1-0.2 0.1-0.4 0.1l-0.1 0.1q-0.1 0-0.2 0.1h-0.1-0.1q-0.1 0.1-0.2 0.1h-0.1q-0.1 0.1-0.2 0.2h-0.1q-0.2 0.1-0.3 0.1l-0.1 0.1q0 0-0.1 0l-0.1 0.1q-0.1 0.1-0.2 0.2h-0.1q-0.1 0.1-0.1 0.1c-0.1 0.9-0.1 1.9 0 2.8v0.4q0.1 0.2 0.1 0.3 0 0.5 0.1 0.7v0.1 0.1q0.1-0.1 0.1-0.1 0.1 0 0.2-0.1l0.1-0.1q0.3-0.1 0.6-0.3h0.1l0.1-0.1q0.4-0.2 0.9-0.5h0.1q0.2-0.1 0.5-0.2 0.1 0 0.1-0.1 0.3-0.1 0.6-0.2 0.6-0.2 1.4-0.4 0.4-0.1 0.7-0.2 0.1 0 0.1 0 0.4-0.1 0.7-0.1h0.1q0.8-0.2 1.6-0.2 0.1 0 0.2 0 0.8-0.1 1.7 0 0.1 0 0.1 0 0.5 0 1 0.1 0.5 0 1 0.1 0.2 0.1 0.3 0.1 0.4 0.1 0.7 0.2 0.4 0.1 0.8 0.2h0.1q0.3 0.1 0.6 0.2h0.1q0 0 0.1 0.1 0.3 0.1 0.6 0.2 0 0 0.1 0 0.1 0.1 0.1 0.1 0.1 0 0.1 0 0.4 0.2 0.8 0.4 0.2 0.1 0.4 0.2 0.1 0 0.2 0c0.1-1.7 0.1-3.9 0.1-3.9z"/><path fill-rule="evenodd" class="a" d="m116.8 103.3v0.3q-0.1 0.1-0.1 0.2v0.2 0.1q-0.3 1.9-0.8 3.9c-0.4 1.7-0.9 3.5-1.5 5.1q-0.1 0.1-0.1 0.3c-1.9 5.2-4.5 9.4-7.5 9.4-3.3 0.1-6.3-4.7-8.5-10.6-5.4-14.5-1.4-23.5-1.4-23.5 0.6-1.5 1.4-2.5 2.1-3.3 1.9-1.7 4.3-2.6 7-2.7 2.3 0 4.3 0.5 6.1 1.6 0.3 0.2 0.8 0.6 1.4 1.2 1.2 1.4 2.1 3.1 2.5 4.9 0.7 2.5 1.5 7.2 0.8 12.9zm-2.6 2.5c-7.4-3.7-13.5-0.7-15.4 0.5 0.3 1.1 0.6 2.3 1 3.5 1.9-1.1 7.1-3.5 13.4-0.3 0.4-1.3 0.7-2.6 1-3.7zm-2.1 7.3c-5.7-3.3-11 0.2-11 0.2 0.5 1.1 1 2.1 1.5 3 0 0 3.9-2.2 8.1-0.1q0.8-1.5 1.4-3.1zm2.8-14.8q0-0.4 0-0.4c0 0-4.1-2.3-8.2-2.2q-0.2 0-0.4 0-0.1 0-0.2 0-0.3 0-0.6 0-0.2 0.1-0.3 0.1-0.1 0-0.3 0-0.2 0-0.3 0h-0.1q-0.4 0.1-0.8 0.2h-0.1q-0.2 0-0.4 0.1 0 0-0.1 0-0.1 0-0.2 0-0.1 0.1-0.1 0.1-0.1 0-0.2 0h-0.1v0.1h-0.1q-0.1 0-0.1 0h-0.1q-0.1 0-0.3 0.1-0.1 0-0.3 0.1-0.2 0-0.4 0.1-0.2 0-0.3 0.1h-0.1q-0.1 0-0.3 0.1h-0.1q-0.2 0.1-0.3 0.1h-0.1q-0.1 0.1-0.3 0.1l-0.1 0.1q-0.1 0-0.3 0.1-0.2 0.1-0.3 0.1h-0.1q-0.1 0.1-0.3 0.2-0.2 0.1-0.3 0.1v0.1h-0.1q-0.1 0-0.2 0.1-0.1 0.1-0.2 0.2h-0.1q-0.1 0.1-0.1 0.1-0.1 0.7-0.1 1.4 0 0.7 0.1 1.4v0.4q0.1 0.2 0.1 0.3v0.1q0 0.1 0 0.1v0.1q0 0.1 0 0.1v0.1 0.1h0.1q0 0.1 0 0.1v0.1q0 0.1 0 0.1 0-0.1 0.1-0.1 0.1 0 0.2-0.1l0.1-0.1q0.3-0.1 0.6-0.3h0.1l0.1-0.1q0.4-0.2 0.9-0.5h0.1q0.2-0.1 0.5-0.2 0.1 0 0.1-0.1 0.3-0.1 0.6-0.2 0.3-0.1 0.6-0.2h0.1q0.3-0.1 0.7-0.2 0.4-0.1 0.7-0.2 0.1 0 0.1 0 0.4-0.1 0.7-0.1h0.1q0.8-0.2 1.6-0.2 0.1 0 0.2 0 0.8-0.1 1.7 0 0.1 0 0.1 0 0.5 0 1 0.1 0.5 0 1 0.1 0.2 0.1 0.3 0.1 0.4 0.1 0.7 0.2 0.4 0.1 0.8 0.2h0.1q0.2 0.1 0.4 0.1 0.1 0.1 0.2 0.1h0.1l0.1 0.1h0.1q0.2 0.1 0.5 0.2 0 0 0.1 0 0.1 0.1 0.1 0.1 0.1 0 0.1 0 0.3 0.1 0.6 0.3 0.1 0 0.2 0.1h0.1q0.1 0.1 0.3 0.2 0.1 0 0.2 0 0-0.1 0-0.3 0-0.3 0-0.7 0-0.1 0-0.3 0-0.3 0.1-0.6c0-0.6 0-1.1 0-1.4q0-0.1 0-0.2z"/><path class="a" d="m113.9 59.8c-1.3-0.8-3-1-4.3-0.3-1.3 0.7-2.2 1.8-2.2 1.8 0.3-1 1-1.6 1.5-2q0.3-0.3 0.8-0.6-0.9-0.7-2-1l0.1-0.1c0-0.1 0.4-6.5 3.2-8.8q1.3-1.1 2.9-0.8c0.3 0 0.5-0.2 0.5-0.4 0.1-0.3-0.1-0.5-0.3-0.5q-2.1-0.3-3.6 1c-3.1 2.5-3.6 8.7-3.6 9.4q-0.4-0.1-0.8-0.1-0.2 0-0.4 0c-0.1-0.8-0.7-6.8-3.7-9.3q-1.6-1.3-3.6-1c-0.2 0.1-0.4 0.3-0.4 0.5 0.1 0.3 0.3 0.5 0.5 0.4q1.7-0.2 2.9 0.8c2.9 2.3 3.4 8.4 3.4 8.8-0.9 0.2-1.7 0.6-2.4 1.1 0.2 0 2 0.7 2.6 2.6 0 0-0.5-0.7-1.3-1.2v-0.1h-0.1c-1.8-1.3-4.4-1-6 0.5-1.1 1.1-1.8 2.7-1.8 4.4 0 2.3 1.3 4.2 3.2 5.2 2-1.4 4.5-2.2 7.2-2.2 2.7-0.1 5.1 0.8 7.2 2.2 1.9-1 3.2-3 3.1-5.3 0-2.1-1-3.9-2.6-5z"/><path class="a" d="m115.2 71.4c-0.4 0-0.8-0.3-0.9-0.7 0-0.5 0.3-1 0.8-1 2.4-0.5 4-2.8 4.5-4.7 0.5-1.6 0.6-3.3 0.6-5q0.1-1.1 0.2-2.3c0.3-3.4 1.3-5.8 3.2-7.4 0.3-0.4 0.9-0.3 1.2 0.1 0.3 0.3 0.3 0.9-0.1 1.2-1.5 1.3-2.3 3.3-2.6 6.3q-0.1 1.1-0.1 2.2c-0.1 1.7-0.2 3.6-0.7 5.4-0.7 2.3-2.7 5.3-5.9 5.9q-0.1 0-0.2 0z"/><path class="a" d="m125 117q-0.3 0-0.6-0.2c-1.7-1.8-2.5-4.4-2.4-7.8q0-1.1 0.1-2.3c0.1-1.7 0.2-3.4-0.1-5-0.4-1.9-1.7-4.4-4.1-5.1-0.4-0.1-0.7-0.6-0.6-1.1 0.1-0.5 0.6-0.7 1.1-0.6 3.2 0.9 4.8 4.1 5.3 6.5 0.3 1.8 0.2 3.7 0.1 5.5 0 0.7-0.1 1.4-0.1 2.1 0 3 0.6 5.1 2 6.6 0.3 0.3 0.3 0.9-0.1 1.2q-0.3 0.2-0.6 0.2z"/><path class="a" d="m87.7 117.2q-0.3 0-0.6-0.3c-0.3-0.3-0.3-0.8 0-1.2 1.3-1.5 1.9-3.6 1.9-6.5 0-0.8-0.1-1.5-0.1-2.2-0.2-1.8-0.3-3.6 0-5.5 0.5-2.4 2.1-5.6 5.3-6.5 0.5-0.1 0.9 0.1 1.1 0.6 0.1 0.5-0.1 0.9-0.6 1.1-2.4 0.7-3.7 3.2-4 5.1-0.3 1.7-0.2 3.3-0.1 5.1q0.1 1.1 0.1 2.2c0.1 3.4-0.7 6-2.3 7.8q-0.3 0.3-0.7 0.3z"/><path class="a" d="m97.5 71.6q-0.1 0-0.1 0c-3.3-0.3-5.5-3.2-6.3-5.5-0.7-1.8-0.9-3.6-1-5.4q-0.2-1.1-0.3-2.1c-0.4-2.9-1.4-4.9-3-6.1-0.4-0.3-0.5-0.9-0.2-1.3 0.3-0.4 0.9-0.4 1.3-0.1 1.9 1.5 3.1 3.8 3.6 7.2q0.2 1.1 0.3 2.3c0.2 1.7 0.3 3.3 0.9 4.9 0.7 1.9 2.4 4.1 4.9 4.4 0.4 0 0.8 0.5 0.7 0.9 0 0.5-0.4 0.8-0.8 0.8z"/><path  d="m40 181.2h-10.9v5.1h10.1v4.5h-10.1v8.3h-5.7v-22.4h16.6z"/><path  d="m49.3 199.1h-5.7v-22.4h5.7z"/><path  d="m72.8 180.3l-12 14.3h12.2v4.5h-19.8v-3.7l12-14.2h-11.6v-4.5h19.2z"/><path  d="m95.2 180.3l-12 14.3h12.2v4.5h-19.8v-3.7l12-14.2h-11.6v-4.5h19.2z"/><path fill-rule="evenodd" d="m99.3 176.7h10.6q3.8 0 6 1.5 2.2 1.5 2.2 4.1 0 1.7-1 3.1-1 1.3-2.8 1.8 2.1 0.4 3.4 2 1.2 1.5 1.2 3.7 0 2.8-2.3 4.5-2.3 1.7-6.3 1.7h-11zm5.7 4.3v4.7h4.6q1.2 0 2-0.7 0.7-0.6 0.7-1.7 0-1-0.7-1.6-0.8-0.7-2-0.7zm0 8.7v5h4.6q1.6 0 2.5-0.7 0.9-0.6 0.9-1.8 0-1.1-0.9-1.8-0.9-0.7-2.5-0.7z"/><path  d="m143.2 176.7v13q0 4.4-2.8 7-2.8 2.6-7.5 2.6-4.7 0-7.5-2.6-2.8-2.6-2.8-7v-13h5.7v13q0 2.2 1.3 3.5 1.3 1.4 3.4 1.4 2 0 3.3-1.3 1.2-1.4 1.2-3.6v-13z"/><path  d="m166.3 180.3l-12 14.3h12.2v4.5h-19.8v-3.7l12-14.2h-11.6v-4.5h19.2z"/><path  d="m188.7 180.3l-12 14.3h12.2v4.5h-19.8v-3.7l12-14.2h-11.6v-4.5h19.2z"/><path fill-rule="evenodd" d="m14.5 218.3h-5.3l-1 2.3h-1.9l4.7-10.5h1.8l4.6 10.5h-1.9zm-0.7-1.5l-2-4.7-2 4.7z"/><path  d="m30.3 210.1q1.1 0 2.1 0.4 1.1 0.4 1.9 1.2l-1.1 1.3q-0.5-0.6-1.3-1-0.8-0.3-1.6-0.3-1.6 0-2.7 1-1 1.1-1 2.7 0 1.5 1 2.6 1.1 1.1 2.7 1.1 1.6 0 2.9-1.3l1.1 1.2q-0.8 0.8-1.9 1.2-1.1 0.5-2.2 0.5-2.3 0-3.9-1.5-1.5-1.6-1.5-3.8 0-2.3 1.6-3.8 1.5-1.5 3.9-1.5z"/><path fill-rule="evenodd" d="m38.3 211.6q1.6-1.5 4-1.5 2.3 0 3.9 1.5 1.6 1.5 1.6 3.8 0 2.2-1.6 3.8-1.6 1.5-3.9 1.5-2.4 0-4-1.5-1.6-1.6-1.6-3.8 0-2.3 1.6-3.8zm4 0.1q-1.6 0-2.7 1.1-1.1 1-1.1 2.6 0 1.5 1.1 2.6 1.1 1.1 2.7 1.1 1.5 0 2.6-1.1 1.1-1.1 1.1-2.6 0-1.6-1.1-2.6-1.1-1.1-2.6-1.1z"/><path fill-rule="evenodd" d="m51.2 210.1h4.3q2.4 0 3.9 1.5 1.6 1.5 1.6 3.8 0 2.3-1.6 3.7-1.5 1.5-3.9 1.5h-4.3zm1.8 1.6v7.3h2.6q1.5 0 2.5-1 1.1-1 1.1-2.6 0-1.6-1.1-2.6-1-1.1-2.6-1.1z"/><path  d="m66.1 220.6h-1.8v-10.5h1.8z"/><path  d="m79.5 220.6h-1.7l-5.6-7.5v7.5h-1.8v-10.5h1.7l5.7 7.6v-7.6h1.7z"/><path  d="m90.9 215.5h1.6v3.8q-0.8 0.7-1.9 1-1.1 0.4-2.2 0.4-2.3 0-3.9-1.5-1.6-1.6-1.6-3.8 0-2.3 1.6-3.8 1.6-1.5 4-1.5 1.1 0 2.2 0.4 1.1 0.4 1.9 1.1l-1 1.3q-1.3-1.2-3.1-1.2-1.6 0-2.7 1-1.1 1.1-1.1 2.7 0 1.6 1.1 2.6 1.1 1.1 2.7 1.1 1.2 0 2.4-0.7z"/><path  d="m106.5 210.1q1.1 0 2.2 0.4 1 0.4 1.8 1.2l-1 1.3q-0.6-0.6-1.4-1-0.8-0.3-1.6-0.3-1.5 0-2.6 1-1.1 1.1-1.1 2.7 0 1.5 1.1 2.6 1.1 1.1 2.6 1.1 1.7 0 3-1.3l1 1.2q-0.8 0.8-1.9 1.2-1.1 0.5-2.1 0.5-2.4 0-3.9-1.5-1.6-1.6-1.6-3.8 0-2.3 1.6-3.8 1.6-1.5 3.9-1.5z"/><path  d="m122.9 220.6h-1.7v-4.3h-5.6v4.3h-1.8v-10.5h1.8v4.6h5.6v-4.6h1.7z"/><path fill-rule="evenodd" d="m134 218.3h-5.3l-1 2.3h-1.9l4.7-10.5h1.8l4.6 10.5h-1.9zm-0.7-1.5l-2-4.7-1.9 4.7z"/><path  d="m141.5 219h4.6v1.6h-6.3v-10.5h1.7z"/><path  d="m151 219h4.6v1.6h-6.3v-10.5h1.7z"/><path  d="m166.3 211.7h-5.7v2.9h5.1v1.5h-5.1v2.9h5.9v1.6h-7.7v-10.5h7.5z"/><path  d="m179.2 220.6h-1.7l-5.6-7.5v7.5h-1.8v-10.5h1.8l5.6 7.6v-7.6h1.7z"/><path  d="m190.7 215.5h1.5v3.8q-0.8 0.7-1.9 1-1.1 0.4-2.2 0.4-2.3 0-3.9-1.5-1.6-1.6-1.6-3.8 0-2.3 1.6-3.8 1.7-1.5 4.1-1.5 1.1 0 2.1 0.4 1.1 0.4 1.9 1.1l-1 1.3q-1.3-1.2-3-1.2-1.7 0-2.8 1-1.1 1.1-1.1 2.7 0 1.6 1.1 2.6 1.2 1.1 2.8 1.1 1.2 0 2.4-0.7z"/><path  d="m203.7 211.7h-5.7v2.9h5.1v1.5h-5.1v2.9h5.9v1.6h-7.7v-10.5h7.5z"/></svg>